<?xml version="1.0" encoding="us-ascii" standalone="no"?><svg xmlns="http://www.w3.org/2000/svg" xmlns:xlink="http://www.w3.org/1999/xlink" contentStyleType="text/css" height="938px" preserveAspectRatio="none" style="width:885px;height:938px;background:#FFFFFF;" version="1.1" viewBox="0 0 885 938" width="885px" zoomAndPan="magnify"><defs/><g><text fill="#000000" font-family="sans-serif" font-size="14" font-weight="bold" lengthAdjust="spacing" textLength="422" x="230" y="34.5332">Lu&#7891;ng x&#7917; l&#253; d&#7919; li&#7879;u c&#7843;m bi&#7871;n (Sensors) trong Gateway MQTT</text><ellipse cx="604.75" cy="58.6094" fill="#222222" rx="10" ry="10" style="stroke:#222222;stroke-width:1.0;"/><rect fill="#F1F1F1" height="50.1875" rx="12.5" ry="12.5" style="stroke:#181818;stroke-width:0.5;" width="172" x="518.75" y="88.6094"/><text fill="#000000" font-family="sans-serif" font-size="12" lengthAdjust="spacing" textLength="121" x="528.75" y="111.0664">Nh&#7853;n MQTT message</text><text fill="#000000" font-family="sans-serif" font-size="12" lengthAdjust="spacing" textLength="152" x="528.75" y="126.1602">(home/&lt;room_id&gt;/sensors)</text><rect fill="#F1F1F1" height="35.0938" rx="12.5" ry="12.5" style="stroke:#181818;stroke-width:0.5;" width="144" x="532.75" y="158.7969"/><text fill="#000000" font-family="sans-serif" font-size="12" lengthAdjust="spacing" textLength="124" x="542.75" y="181.2539">Decode payload JSON</text><rect fill="#F1F1F1" height="50.1875" rx="12.5" ry="12.5" style="stroke:#181818;stroke-width:0.5;" width="132" x="538.75" y="213.8906"/><text fill="#000000" font-family="sans-serif" font-size="12" lengthAdjust="spacing" textLength="62" x="548.75" y="236.3477">Parse topic</text><text fill="#000000" font-family="sans-serif" font-size="12" lengthAdjust="spacing" textLength="112" x="548.75" y="251.4414">-&gt; room_id, category</text><polygon fill="#F1F1F1" points="551.25,284.0781,658.25,284.0781,670.25,296.0781,658.25,308.0781,551.25,308.0781,539.25,296.0781,551.25,284.0781" style="stroke:#181818;stroke-width:0.5;"/><text fill="#000000" font-family="sans-serif" font-size="11" lengthAdjust="spacing" textLength="107" x="551.25" y="300.5791">category == sensors?</text><text fill="#000000" font-family="sans-serif" font-size="11" lengthAdjust="spacing" textLength="20" x="519.25" y="293.6611">Yes</text><text fill="#000000" font-family="sans-serif" font-size="11" lengthAdjust="spacing" textLength="13" x="670.25" y="293.6611">No</text><rect fill="#F1F1F1" height="35.0938" rx="12.5" ry="12.5" style="stroke:#181818;stroke-width:0.5;" width="242" x="254.5" y="318.0781"/><text fill="#000000" font-family="sans-serif" font-size="12" lengthAdjust="spacing" textLength="222" x="264.5" y="340.5352">C&#7853;p nh&#7853;t CACHED_SENSORS[room_id]</text><rect fill="#555555" height="6" rx="2.5" ry="2.5" style="stroke:#555555;stroke-width:1.0;" width="729" x="11" y="373.1719"/><rect fill="#F1F1F1" height="35.0938" rx="12.5" ry="12.5" style="stroke:#181818;stroke-width:0.5;" width="192" x="74.75" y="481.7656"/><text fill="#000000" font-family="sans-serif" font-size="12" lengthAdjust="spacing" textLength="172" x="84.75" y="504.2227">AutomationController.process()</text><rect fill="#F1F1F1" height="50.1875" rx="12.5" ry="12.5" style="stroke:#181818;stroke-width:0.5;" width="153" x="94.25" y="551.8594"/><text fill="#000000" font-family="sans-serif" font-size="12" lengthAdjust="spacing" textLength="133" x="104.25" y="574.3164">So s&#225;nh gi&#225; tr&#7883; c&#7843;m bi&#7871;n</text><text fill="#000000" font-family="sans-serif" font-size="12" lengthAdjust="spacing" textLength="85" x="104.25" y="589.4102">v&#7899;i c&#225;c ng&#432;&#7905;ng</text><polygon fill="#F1F1F1" points="134.75,630.6406,206.75,630.6406,218.75,642.6406,206.75,654.6406,134.75,654.6406,122.75,642.6406,134.75,630.6406" style="stroke:#181818;stroke-width:0.5;"/><text fill="#000000" font-family="sans-serif" font-size="11" lengthAdjust="spacing" textLength="72" x="134.75" y="647.1416">V&#432;&#7907;t ng&#432;&#7905;ng?</text><text fill="#000000" font-family="sans-serif" font-size="11" lengthAdjust="spacing" textLength="20" x="102.75" y="640.2236">Yes</text><text fill="#000000" font-family="sans-serif" font-size="11" lengthAdjust="spacing" textLength="13" x="218.75" y="640.2236">No</text><rect fill="#F1F1F1" height="50.1875" rx="12.5" ry="12.5" style="stroke:#181818;stroke-width:0.5;" width="149" x="23" y="664.6406"/><text fill="#000000" font-family="sans-serif" font-size="12" lengthAdjust="spacing" textLength="129" x="33" y="687.0977">Publish l&#7879;nh &#273;i&#7873;u khi&#7875;n</text><text fill="#000000" font-family="sans-serif" font-size="12" lengthAdjust="spacing" textLength="56" x="33" y="702.1914">qua MQTT</text><rect fill="#F1F1F1" height="35.0938" rx="12.5" ry="12.5" style="stroke:#181818;stroke-width:0.5;" width="104" x="192" y="664.6406"/><text fill="#000000" font-family="sans-serif" font-size="12" lengthAdjust="spacing" textLength="84" x="202" y="687.0977">Kh&#244;ng g&#7917;i l&#7879;nh</text><polygon fill="#F1F1F1" points="170.75,720.8281,182.75,732.8281,170.75,744.8281,158.75,732.8281,170.75,720.8281" style="stroke:#181818;stroke-width:0.5;"/><rect fill="#F1F1F1" height="35.0938" rx="12.5" ry="12.5" style="stroke:#181818;stroke-width:0.5;" width="137" x="485.5" y="399.1719"/><text fill="#000000" font-family="sans-serif" font-size="12" lengthAdjust="spacing" textLength="117" x="495.5" y="421.6289">L&#7845;y th&#7901;i &#273;i&#7875;m hi&#7879;n t&#7841;i</text><rect fill="#F1F1F1" height="35.0938" rx="12.5" ry="12.5" style="stroke:#181818;stroke-width:0.5;" width="186" x="461" y="454.2656"/><text fill="#000000" font-family="sans-serif" font-size="12" lengthAdjust="spacing" textLength="166" x="471" y="476.7227">So s&#225;nh v&#7899;i LAST_DB_WRITE</text><polygon fill="#F1F1F1" points="451.5,524.3594,656.5,524.3594,668.5,536.3594,656.5,548.3594,451.5,548.3594,439.5,536.3594,451.5,524.3594" style="stroke:#181818;stroke-width:0.5;"/><text fill="#000000" font-family="sans-serif" font-size="11" lengthAdjust="spacing" textLength="205" x="451.5" y="540.8604">now - last_write &gt; DB_WRITE_INTERVAL?</text><text fill="#000000" font-family="sans-serif" font-size="11" lengthAdjust="spacing" textLength="20" x="419.5" y="533.9424">Yes</text><text fill="#000000" font-family="sans-serif" font-size="11" lengthAdjust="spacing" textLength="13" x="668.5" y="533.9424">No</text><rect fill="#F1F1F1" height="35.0938" rx="12.5" ry="12.5" style="stroke:#181818;stroke-width:0.5;" width="171" x="344" y="558.3594"/><text fill="#000000" font-family="sans-serif" font-size="12" lengthAdjust="spacing" textLength="151" x="354" y="580.8164">C&#7853;p nh&#7853;t LAST_DB_WRITE</text><rect fill="#F1F1F1" height="50.1875" rx="12.5" ry="12.5" style="stroke:#181818;stroke-width:0.5;" width="139" x="360" y="622.0469"/><text fill="#000000" font-family="sans-serif" font-size="12" lengthAdjust="spacing" textLength="105" x="370" y="644.5039">Submit task ghi DB</text><text fill="#000000" font-family="sans-serif" font-size="12" lengthAdjust="spacing" textLength="119" x="370" y="659.5977">(ThreadPoolExecutor)</text><rect fill="#F1F1F1" height="35.0938" rx="12.5" ry="12.5" style="stroke:#181818;stroke-width:0.5;" width="143" x="358" y="707.2344"/><text fill="#000000" font-family="sans-serif" font-size="12" lengthAdjust="spacing" textLength="123" x="368" y="729.6914">Ghi Firebase Firestore</text><rect fill="#F1F1F1" height="35.0938" rx="12.5" ry="12.5" style="stroke:#181818;stroke-width:0.5;" width="96" x="381.5" y="764.8281"/><text fill="#000000" font-family="sans-serif" font-size="12" lengthAdjust="spacing" textLength="76" x="391.5" y="787.2852">Ghi MongoDB</text><rect fill="#F1F1F1" height="35.0938" rx="12.5" ry="12.5" style="stroke:#181818;stroke-width:0.5;" width="99" x="629" y="558.3594"/><text fill="#000000" font-family="sans-serif" font-size="12" lengthAdjust="spacing" textLength="79" x="639" y="580.8164">B&#7887; qua ghi DB</text><polygon fill="#F1F1F1" points="554,805.9219,566,817.9219,554,829.9219,542,817.9219,554,805.9219" style="stroke:#181818;stroke-width:0.5;"/><rect fill="#555555" height="6" rx="2.5" ry="2.5" style="stroke:#555555;stroke-width:1.0;" width="729" x="11" y="849.9219"/><rect fill="#F1F1F1" height="35.0938" rx="12.5" ry="12.5" style="stroke:#181818;stroke-width:0.5;" width="124" x="750" y="318.0781"/><text fill="#000000" font-family="sans-serif" font-size="12" lengthAdjust="spacing" textLength="104" x="760" y="340.5352">X&#7917; l&#253; category kh&#225;c</text><polygon fill="#F1F1F1" points="604.75,861.9219,616.75,873.9219,604.75,885.9219,592.75,873.9219,604.75,861.9219" style="stroke:#181818;stroke-width:0.5;"/><ellipse cx="604.75" cy="916.9219" fill="none" rx="11" ry="11" style="stroke:#222222;stroke-width:1.0;"/><ellipse cx="604.75" cy="916.9219" fill="#222222" rx="6" ry="6" style="stroke:#222222;stroke-width:1.0;"/><line style="stroke:#181818;stroke-width:1.0;" x1="604.75" x2="604.75" y1="68.6094" y2="88.6094"/><polygon fill="#181818" points="600.75,78.6094,604.75,88.6094,608.75,78.6094,604.75,82.6094" style="stroke:#181818;stroke-width:1.0;"/><line style="stroke:#181818;stroke-width:1.0;" x1="604.75" x2="604.75" y1="138.7969" y2="158.7969"/><polygon fill="#181818" points="600.75,148.7969,604.75,158.7969,608.75,148.7969,604.75,152.7969" style="stroke:#181818;stroke-width:1.0;"/><line style="stroke:#181818;stroke-width:1.0;" x1="604.75" x2="604.75" y1="193.8906" y2="213.8906"/><polygon fill="#181818" points="600.75,203.8906,604.75,213.8906,608.75,203.8906,604.75,207.8906" style="stroke:#181818;stroke-width:1.0;"/><line style="stroke:#181818;stroke-width:1.0;" x1="170.75" x2="170.75" y1="516.8594" y2="551.8594"/><polygon fill="#181818" points="166.75,541.8594,170.75,551.8594,174.75,541.8594,170.75,545.8594" style="stroke:#181818;stroke-width:1.0;"/><line style="stroke:#181818;stroke-width:1.0;" x1="122.75" x2="97.5" y1="642.6406" y2="642.6406"/><line style="stroke:#181818;stroke-width:1.0;" x1="97.5" x2="97.5" y1="642.6406" y2="664.6406"/><polygon fill="#181818" points="93.5,654.6406,97.5,664.6406,101.5,654.6406,97.5,658.6406" style="stroke:#181818;stroke-width:1.0;"/><line style="stroke:#181818;stroke-width:1.0;" x1="218.75" x2="244" y1="642.6406" y2="642.6406"/><line style="stroke:#181818;stroke-width:1.0;" x1="244" x2="244" y1="642.6406" y2="664.6406"/><polygon fill="#181818" points="240,654.6406,244,664.6406,248,654.6406,244,658.6406" style="stroke:#181818;stroke-width:1.0;"/><line style="stroke:#181818;stroke-width:1.0;" x1="97.5" x2="97.5" y1="714.8281" y2="732.8281"/><line style="stroke:#181818;stroke-width:1.0;" x1="97.5" x2="158.75" y1="732.8281" y2="732.8281"/><polygon fill="#181818" points="148.75,728.8281,158.75,732.8281,148.75,736.8281,152.75,732.8281" style="stroke:#181818;stroke-width:1.0;"/><line style="stroke:#181818;stroke-width:1.0;" x1="244" x2="244" y1="699.7344" y2="732.8281"/><line style="stroke:#181818;stroke-width:1.0;" x1="244" x2="182.75" y1="732.8281" y2="732.8281"/><polygon fill="#181818" points="192.75,728.8281,182.75,732.8281,192.75,736.8281,188.75,732.8281" style="stroke:#181818;stroke-width:1.0;"/><line style="stroke:#181818;stroke-width:1.0;" x1="170.75" x2="170.75" y1="602.0469" y2="630.6406"/><polygon fill="#181818" points="166.75,620.6406,170.75,630.6406,174.75,620.6406,170.75,624.6406" style="stroke:#181818;stroke-width:1.0;"/><line style="stroke:#181818;stroke-width:1.0;" x1="554" x2="554" y1="434.2656" y2="454.2656"/><polygon fill="#181818" points="550,444.2656,554,454.2656,558,444.2656,554,448.2656" style="stroke:#181818;stroke-width:1.0;"/><line style="stroke:#181818;stroke-width:1.0;" x1="429.5" x2="429.5" y1="593.4531" y2="622.0469"/><polygon fill="#181818" points="425.5,612.0469,429.5,622.0469,433.5,612.0469,429.5,616.0469" style="stroke:#181818;stroke-width:1.0;"/><line style="stroke:#181818;stroke-width:1.0;" x1="429.5" x2="429.5" y1="672.2344" y2="707.2344"/><polygon fill="#181818" points="425.5,697.2344,429.5,707.2344,433.5,697.2344,429.5,701.2344" style="stroke:#181818;stroke-width:1.0;"/><line style="stroke:#181818;stroke-width:1.0;" x1="429.5" x2="429.5" y1="742.3281" y2="764.8281"/><polygon fill="#181818" points="425.5,754.8281,429.5,764.8281,433.5,754.8281,429.5,758.8281" style="stroke:#181818;stroke-width:1.0;"/><line style="stroke:#181818;stroke-width:1.0;" x1="439.5" x2="429.5" y1="536.3594" y2="536.3594"/><line style="stroke:#181818;stroke-width:1.0;" x1="429.5" x2="429.5" y1="536.3594" y2="558.3594"/><polygon fill="#181818" points="425.5,548.3594,429.5,558.3594,433.5,548.3594,429.5,552.3594" style="stroke:#181818;stroke-width:1.0;"/><line style="stroke:#181818;stroke-width:1.0;" x1="668.5" x2="678.5" y1="536.3594" y2="536.3594"/><line style="stroke:#181818;stroke-width:1.0;" x1="678.5" x2="678.5" y1="536.3594" y2="558.3594"/><polygon fill="#181818" points="674.5,548.3594,678.5,558.3594,682.5,548.3594,678.5,552.3594" style="stroke:#181818;stroke-width:1.0;"/><line style="stroke:#181818;stroke-width:1.0;" x1="429.5" x2="429.5" y1="799.9219" y2="817.9219"/><line style="stroke:#181818;stroke-width:1.0;" x1="429.5" x2="542" y1="817.9219" y2="817.9219"/><polygon fill="#181818" points="532,813.9219,542,817.9219,532,821.9219,536,817.9219" style="stroke:#181818;stroke-width:1.0;"/><line style="stroke:#181818;stroke-width:1.0;" x1="678.5" x2="678.5" y1="593.4531" y2="817.9219"/><line style="stroke:#181818;stroke-width:1.0;" x1="678.5" x2="566" y1="817.9219" y2="817.9219"/><polygon fill="#181818" points="576,813.9219,566,817.9219,576,821.9219,572,817.9219" style="stroke:#181818;stroke-width:1.0;"/><line style="stroke:#181818;stroke-width:1.0;" x1="554" x2="554" y1="489.3594" y2="524.3594"/><polygon fill="#181818" points="550,514.3594,554,524.3594,558,514.3594,554,518.3594" style="stroke:#181818;stroke-width:1.0;"/><line style="stroke:#181818;stroke-width:1.0;" x1="170.75" x2="170.75" y1="379.1719" y2="481.7656"/><polygon fill="#181818" points="166.75,471.7656,170.75,481.7656,174.75,471.7656,170.75,475.7656" style="stroke:#181818;stroke-width:1.0;"/><line style="stroke:#181818;stroke-width:1.0;" x1="554" x2="554" y1="379.1719" y2="399.1719"/><polygon fill="#181818" points="550,389.1719,554,399.1719,558,389.1719,554,393.1719" style="stroke:#181818;stroke-width:1.0;"/><line style="stroke:#181818;stroke-width:1.0;" x1="170.75" x2="170.75" y1="744.8281" y2="849.9219"/><polygon fill="#181818" points="166.75,839.9219,170.75,849.9219,174.75,839.9219,170.75,843.9219" style="stroke:#181818;stroke-width:1.0;"/><line style="stroke:#181818;stroke-width:1.0;" x1="554" x2="554" y1="829.9219" y2="849.9219"/><polygon fill="#181818" points="550,839.9219,554,849.9219,558,839.9219,554,843.9219" style="stroke:#181818;stroke-width:1.0;"/><line style="stroke:#181818;stroke-width:1.0;" x1="375.5" x2="375.5" y1="353.1719" y2="373.1719"/><polygon fill="#181818" points="371.5,363.1719,375.5,373.1719,379.5,363.1719,375.5,367.1719" style="stroke:#181818;stroke-width:1.0;"/><line style="stroke:#181818;stroke-width:1.0;" x1="539.25" x2="375.5" y1="296.0781" y2="296.0781"/><line style="stroke:#181818;stroke-width:1.0;" x1="375.5" x2="375.5" y1="296.0781" y2="318.0781"/><polygon fill="#181818" points="371.5,308.0781,375.5,318.0781,379.5,308.0781,375.5,312.0781" style="stroke:#181818;stroke-width:1.0;"/><line style="stroke:#181818;stroke-width:1.0;" x1="670.25" x2="812" y1="296.0781" y2="296.0781"/><line style="stroke:#181818;stroke-width:1.0;" x1="812" x2="812" y1="296.0781" y2="318.0781"/><polygon fill="#181818" points="808,308.0781,812,318.0781,816,308.0781,812,312.0781" style="stroke:#181818;stroke-width:1.0;"/><line style="stroke:#181818;stroke-width:1.0;" x1="375.5" x2="375.5" y1="855.9219" y2="873.9219"/><line style="stroke:#181818;stroke-width:1.0;" x1="375.5" x2="592.75" y1="873.9219" y2="873.9219"/><polygon fill="#181818" points="582.75,869.9219,592.75,873.9219,582.75,877.9219,586.75,873.9219" style="stroke:#181818;stroke-width:1.0;"/><line style="stroke:#181818;stroke-width:1.0;" x1="812" x2="812" y1="353.1719" y2="873.9219"/><line style="stroke:#181818;stroke-width:1.0;" x1="812" x2="616.75" y1="873.9219" y2="873.9219"/><polygon fill="#181818" points="626.75,869.9219,616.75,873.9219,626.75,877.9219,622.75,873.9219" style="stroke:#181818;stroke-width:1.0;"/><line style="stroke:#181818;stroke-width:1.0;" x1="604.75" x2="604.75" y1="264.0781" y2="284.0781"/><polygon fill="#181818" points="600.75,274.0781,604.75,284.0781,608.75,274.0781,604.75,278.0781" style="stroke:#181818;stroke-width:1.0;"/><line style="stroke:#181818;stroke-width:1.0;" x1="604.75" x2="604.75" y1="885.9219" y2="905.9219"/><polygon fill="#181818" points="600.75,895.9219,604.75,905.9219,608.75,895.9219,604.75,899.9219" style="stroke:#181818;stroke-width:1.0;"/><!--SRC=[TLDDRzD04BtxLymnaIYz9pGeNvH2cfROAY22h8sziLTPxuRTDMcELGyzS4288-8GLHmhE72AXJW4yJ_sdp2EdPIWuijwT-VDlFTcrZ33AVHIctqK4PpRx0RuwWU4DliAdDdiAeN0BgyJ636x_2cWubAXfT9LC4eYuf0OEYDpE7xcUOwZ3L76SMhzs2vlnFeG4gerYUXGL6APqFq7Iih4Ps5ZNvUPwawjGmCPKfYIEPSaX2VkIHzFJudI58oSic0ezXfG8kz1W4KZgUPrns5Zg6osS700PTA7o2-cIFSbrLN70QYraT4KH4xCGBlPVjpj-6wtxvuCt5TbujVrF78irGGNX3HJ8nDYc1HjAL0kvrJTdoePeA8Aqbu7kHBqQY5YYDXgWQROxDsEOqFnrcQV60IhHG0Y-ltDPWiH5U2S_5b-ScrkhtQfm_ghdQOZpdGC73k2jNvzmDPSf329SRt46czIidQxo4iv-bRfootyQRpwZisAiBsip556Yf2DIz508i94eQfdbr_coCDcdrbHxJA1lDYL06EN2_Ql-a9ah-bwVgVbFnySUTrRZKBEO0yuqSQVAMOeD60Jv1_rlUxWhDcxK_PEq-v8dZD8HmapO8YUG1GpJ8oJviMAal1KIjuzfm6sKLMtW4CCUiGK7H4qAV_HU4rtheznicMdzHypMpPx3xdXHRbT8t4j9iZv6rTxiNbOsrcTn3WGTQV0uSEHqpy0]--></g></svg>